# xmcd
#
# Track frame offsets: 
#        150
#        20085
#        50145
#        88432
#
# Disc length: 1488 seconds
#
# Revision: 2
# Processed by: cddbd v1.5.2PL0 Copyright (c) Steve Scherf et al.
# Submitted via: ExactAudioCopyFreeDBPlugin 1.0
#
DISCID=3705ce04
DTITLE=Hammer - Pumps And A Bump [CDS)
DYEAR=1994
DGENRE=R&B
TTITLE0=Pumps And A Bump (Radio Edit)
TTITLE1=Pumps And A Bump (Bump Teddy Bump Mix)
TTITLE2=Pumps And A Bump (Club Mix)
TTITLE3=Pumps And A Bump (Album Mix)
EXTD=YEAR: 1994 ID3G: 7
EXTT0=
EXTT1=
EXTT2=
EXTT3=
PLAYORDER=
